<svg width="2011" height="740" viewBox="0 0 2011 740" fill="none" xmlns="http://www.w3.org/2000/svg">
<g clip-path="url(#clip0_205_8)">
<path d="M2011 699.783H0V740H2011V699.783Z" fill="black"/>
<path d="M282.812 332.669C91.5405 332.669 88.6497 332.188 86.2408 332.188H85.2772C37.098 328.333 0 287.384 0 238.726C0 186.696 41.9159 144.783 93.9494 144.783H296.302C336.773 144.783 369.534 177.542 369.534 218.492V257.515H95.3948H94.913H94.4312C83.35 257.033 76.1231 248.843 76.1231 238.726C76.1231 228.609 83.8318 220.419 93.9494 219.937H331.955V218.974C331.955 198.258 316.056 182.36 295.339 182.36H93.9494C63.1148 182.36 37.5798 207.412 37.5798 238.726C37.5798 267.632 59.2604 290.756 86.7226 294.61C278.958 294.61 280.885 295.092 284.257 295.092C332.437 298.946 369.534 340.378 369.534 388.554C369.534 440.584 327.619 482.497 276.067 482.497H73.2324C32.7619 482.497 0 449.737 0 409.269V369.765H276.067C299.675 371.21 299.675 405.897 276.067 407.342H37.5798V408.306C37.5798 429.021 53.4789 444.92 74.196 444.92H276.067C306.42 444.92 332.437 420.832 332.437 388.554C332.437 359.648 310.756 336.523 282.812 332.669ZM674.991 369.765L696.671 332.188L762.195 444.92H805.556C795.92 429.503 704.38 272.931 696.671 257.515L602.24 421.313L567.069 482.497H436.985C444.212 470.453 492.873 385.663 539.607 304.245C567.069 256.551 597.422 203.076 631.629 144.783H674.991L585.377 299.91L502.027 444.92H545.389C604.649 340.378 641.747 278.712 696.671 182.36C700.044 188.141 869.635 482.015 870.598 482.497H740.514L674.991 369.765ZM975.629 182.36V369.765H1308.55V482.497H938.049V444.92H1271.45V407.342H938.049V144.783H1050.79V332.669H1013.21V182.36H975.629ZM1488.74 482.497H1376V144.783H1488.74V407.342H1451.16V182.36H1413.58V444.92H1488.74V482.497ZM1783.59 336.042L1891.52 144.783H2011V482.497H1898.26V356.276L1826.47 482.497H1740.23L1630.87 290.756V219.937L1762.4 444.92H1804.79L1935.84 219.937V444.92H1973.42V182.36H1913.2L1782.63 407.824L1653.99 182.36H1593.77V444.92H1630.87V374.101L1668.45 438.657V482.497H1556.19V144.783H1675.67L1783.59 336.042Z" fill="black"/>
</g>
<defs>
<clipPath id="clip0_205_8">
<rect width="2011" height="740" fill="white"/>
</clipPath>
</defs>
</svg>
