<?xml version="1.0" encoding="UTF-8"?><svg id="Layer_0_Image" data-name="Layer 0 Image" xmlns="http://www.w3.org/2000/svg" viewBox="0 0 800 600" x="0px" y="0px" width="800px" height="600px" version="1.1" xmlns:xlink="http://www.w3.org/1999/xlink"><title>1</title><path d="M541.5,62.264c8.945-6.828,16.192-4.4,25.561,8.28,9.774,13.228,11.8,29.483,16.87,44.519a211.115,211.115,0,0,1,6.663,26.252c1.3,6.518,3.693,7.266,9.578,4.506,21.332-10,42.886-19.534,64.4-29.142a92.109,92.109,0,0,1,13.231-4.986c5.935-1.613,12.377-2.956,6.923,7.52,15.489-4.323,29,6.866,28.481,21.266-.2,5.634-3.691,6.47-6.812,8.255q-45.263,25.881-90.675,51.5c-13.064,7.372-12.133,9.17-6.427,22.912,5.651,13.609,8.289,28.683,10.72,43.367,4.624,27.933,11,55.236,23.03,81.018,2.294,4.913,5.054,11.176.09,14.915-3.957,2.979-10.259,6.758-15.46.131a4.381,4.381,0,0,0-2.828-1.5c-23.291-1.472-30.482-19.347-37.446-37.091-10.417-26.546-17.734-54.111-25.379-81.524-2.4-8.59-4.431-10.273-12.8-5.787-25.244,13.538-50.233,27.556-75.564,40.946-18.155,9.6-35.018,2.91-52.062-.147-4.754-.853-9.447-9.476-11.571-15.457-2.115-5.954,4.345-9.418,8.766-12.371,38.625-25.791,77.2-51.7,118.573-73,6.244-3.213,7.721-5.891,5.809-13.306-7.4-28.686-13.647-57.671-20.053-86.605-1.393-6.289-3.12-12.958.948-19.052,3.094-4.635,6.59-8.872,13.151-7.652C545.229,51.521,538.626,58.021,541.5,62.264Z"/><path d="M66.8,427.61c-3.485-4.326-12.365-1.642-11.027-9.675,1.635-9.817,10.007-12.033,17.9-12.841,13.331-1.365,26.782-1.711,40.2-2.108,17.06-.5,34.135-.528,51.2-.961,13.447-.342,13.339-.459,10.725-14.209-5.582-29.365-8.75-58.954-7.6-88.893.5-13.1,1.965-26.089,5.423-38.779a72.466,72.466,0,0,1,9.125-20.9c11.679-17.8,27.4-19.363,44.215-6.354,8.251,6.382,14.821,12.847,18.5,22.7,2.635,7.059.261,11.7-5.6,14.263-7.925,3.468-9.874,9.786-10.973,17.317-4.028,27.613-1.083,55.1,1.166,82.608.5,6.125,1.824,12.221,1.865,18.337.061,8.99,4.811,10.719,12.573,10.112,19.156-1.5,38.441-1.765,57.148-6.961,1.979-.55,4.213-1.6,5.893.774.762,4.036-4.395,4.255-5.29,7.191,2.844,2.437,5.189.317,7.552.293,3.643-.035,11.349-7,8.409,4.728,6.246.951,8.931,4.771,9.921,10.873.918,5.656.763,10.242-5.485,12.37-23.858,8.125-48.766,11.328-73.524,14.873-7.411,1.061-8.353,3.567-6.793,9.646,5.245,20.439,9.662,41.241,28.258,54.839,3.434,2.511,3.45,7.074,5.173,10.627,2.617,5.395-1.9,7.979-4.477,11.175-2.649,3.292-5.746,1.259-8.915.346-33.348-9.607-52.207-33.493-64.613-64.279C191.3,448.76,190.863,449.65,173,451.745c-17.6,2.064-35.4,2.443-53.1,3.768-15.1,1.131-28.546-3.328-40.917-11.6-3-2.007-5.829-4.675-9.6-4.445-4.516.276-6.853-2.008-8.088-5.741C59.862,429.392,64.962,429.5,66.8,427.61Z"/></svg>