<?xml version="1.0" encoding="UTF-8"?><svg id="Layer_0_Image" data-name="Layer 0 Image" xmlns="http://www.w3.org/2000/svg" viewBox="0 0 800 600" x="0px" y="0px" width="800px" height="600px" version="1.1" xmlns:xlink="http://www.w3.org/1999/xlink"><title>1</title><path d="M560.483,281.693c-1.345-2.6-1.891-3.66-2.251-4.357-4.1.6,1.331,9.079-5.073,7.138-2.626,3.176-4.684,6.273-7.33,8.74-5.783,5.391-11.7,10.664-17.9,15.565-2.43,1.921-5.771,2.672-8.654,4.045-1.024.488-2.393,1.021-2.807,1.906-5.685,12.159-16.09,19.466-26.635,26.864-10.946,7.679-20.882,16.917-32.262,23.82-9.6,5.825-19.762,12.354-32.478,5.467-6.417-3.475-9.689-12.658-4.8-18.206a22.783,22.783,0,0,0,3.882-6.342c8.5-20.775,17.069-41.529,25.26-62.429,7.115-18.153,13.4-36.636,20.758-54.688,4.752-11.664,13.059-21.07,22.4-29.456a134.374,134.374,0,0,1,18.2-14.315l-3.785,5.98.883.958,11.455-10.668-.767-1.306-5.093,1.647-.874-.905c1.782-1.978,3.3-4.3,5.386-5.882q29.691-22.614,59.551-45.006c2.623-1.977,5.519-3.633,7.954-5.811,4.569-4.088,13.71-7.405,16.81-5.032,5.135,3.932,8.986,9.035,7.613,16.092-1.561,8.028-2.682,16.3-5.534,23.883-4.342,11.554-5.808,23.873-10.393,35.289-.736,1.832-2.236,3.355-2.979,5.185a25.393,25.393,0,0,0-1.357,5.721c-.615,4.037-.788,8.165-1.7,12.127a127.945,127.945,0,0,1-4.357,14.774c-3.63,10.054-7.473,20.034-11.4,29.974-.416,1.052-2.065,1.578-3.039,2.46-.932.843-2.641,2.142-2.448,2.711C568.987,274.327,560.53,275.01,560.483,281.693Zm1.947-34.839c-1.46,2.373-5.61.349-6.255,4.513-.566,3.65-2.3,7.117-3.576,10.809C559.383,259.506,560.18,252.732,562.43,246.854Zm-35.635-75.5.964,1.541,18.8-14.844-1.112-1.454Zm-39.485,38.55,1.477,1.484,12-12.255-1.035-1.042Z"/><path d="M326.642,328.137C322.868,317.7,325,301.3,330.831,297.094l-4.807-.253a5.514,5.514,0,0,1-.463-1.564c.479-17.819.8-35.645,1.552-53.453.617-14.53,1.741-29.039,2.683-43.555,1.447-22.292,11.288-40.966,24.89-58.088,19.274-24.263,38.459-48.583,61.09-69.92,5.021-4.735,9.5-10.042,14.376-14.935,2.6-2.606,4.766-3.022,8.141.131,5.554,5.188,6.064,11.312,5.392,17.888-2.589,25.356-5.481,50.681-8.03,76.041-1.547,15.388-2.483,30.838-4.11,46.216-.447,4.229-2.619,8.247-3.587,12.457-1,4.363-1.264,8.9-2.27,13.258-4.673,20.239-16.559,36.271-30.161,51.294-10.949,12.093-21.642,24.425-32.811,36.31-5.8,6.168-11.926,12.248-18.816,17.063-3.116,2.177-8.455,1.166-12.784,1.615C329.768,327.738,328.425,327.921,326.642,328.137Zm85.784-110.364-2.268-1.234q-5.274,10.691-10.549,21.38l1.63.861Z"/><path d="M599.231,360.884c-1.453,8.543-3.511,19.076-4.984,29.69-1.79,12.895-3.5,25.829-4.437,38.805a29.7,29.7,0,0,1-8.028,18.575c-8.884,9.7-18.71,18.6-27.009,28.758-9.262,11.338-21.294,19.089-32.438,28.035-12.137,9.742-24.217,19.559-36.489,29.127-4.378,3.414-9.261,6.177-13.887,9.276-8.088,5.418-16.878,3.57-25.423,1.99-1.789-.331-4.065-3.66-4.257-5.777a35.555,35.555,0,0,1,1.178-11.941c6.77-26.016,13.933-51.93,20.607-77.969,3.42-13.346,9.327-25.183,18.776-35.194,17-18.013,33.728-36.3,51.21-53.839,11.548-11.584,25.383-20.41,39.622-28.478,11.149-6.317,23.135-.382,24.647,12.4C598.88,349.091,598.868,353.9,599.231,360.884Z"/><path d="M296.674,421.009c4.63-8.078,8.17-17.086,14.109-24.048,13.914-16.311,28.716-31.9,43.67-47.279,9.7-9.973,20.246-19.124,30.56-28.481a5.862,5.862,0,0,1,4.827-1.252c4.475,1.529,10.022,2.99,9.972,8.87-.086,10.415-.993,20.829-1.735,31.231-.719,10.081-1.628,20.15-2.516,30.218-1.443,16.361-3.942,32.64-12.207,47.018-3.957,6.883-10.355,12.406-15.87,18.338-5.824,6.265-11.735,12.47-17.941,18.35-4.874,4.616-10.277,8.672-15.405,13.024-4.068,3.451-8.393,6.671-12.052,10.519-9.951,10.466-20.868,19.6-33.753,26.248-2.736,1.41-15.04-.1-16.818-2.273-3.232-3.947-1.841-8.1-.578-12.518,3.427-11.986,6.342-24.117,9.544-36.168,4.039-15.2,8.071-30.412,12.342-45.551.644-2.281,2.572-4.2,3.932-6.307.716.936,1.406,1.894,2.338,3.188l11.191-18.819-1.624-.991c-1.326,1.965-2.6,3.97-3.988,5.887C302.042,413.838,299.344,417.413,296.674,421.009Zm14.09-20.15,1.819,1.791q5.893-7.041,11.788-14.081l.711.748Zm46.066,46.512,1.027.755q6.954-7.357,13.909-14.713l-.976-.914Q363.809,439.935,356.83,447.371Zm16.535-25.307-2.272-1.235-5.607,9.394,1.842,1.072Q370.348,426.68,373.365,422.064Z"/><path d="M189.8,418.093c2.486-18.414,4.695-34.579,6.841-50.753.858-6.462,1.833-12.924,2.314-19.419,1.268-17.1,11.478-29.21,22.131-41.3,7.695-8.73,14.55-18.2,22.151-27.015,9.192-10.663,18.552-21.2,28.32-31.332,3.016-3.128,7.074-5.715,12.466-3.441,6.31,2.661,11.166,6.244,11.268,13.577.187,13.359.5,26.747-.194,40.074-.347,6.692-3.2,13.217-4.144,19.927-.935,6.666-.636,13.5-1.36,20.2-.521,4.819-1.059,9.9-2.992,14.236a59.6,59.6,0,0,1-9.517,14.823c-6.323,7.213-13.388,13.778-20.166,20.589-9.531,9.575-18.666,19.549-30.488,26.576-3.859,2.294-6.809,6.065-10.423,8.836-6.557,5.027-14.094,3.577-20.957,1.5C192.4,424.37,190.919,419.712,189.8,418.093Zm45.328-120.7L233.7,296.3l-14.675,17.706,1.254,1Zm19.707,25.128-1.441-.584-7.148,18.041,1.36.517Q251.218,331.507,254.832,322.519Z"/></svg>